<svg width="48" height="48" viewBox="0 0 48 48" fill="none" xmlns="http://www.w3.org/2000/svg">
<path fill-rule="evenodd" clip-rule="evenodd" d="M9.83715 48.0003C8.52258 48.0003 7.24474 47.7422 6.0382 47.2313C5.70658 47.0908 5.46787 46.7959 5.39874 46.4438C5.32961 46.0917 5.44086 45.7277 5.6947 45.4738L9.5131 41.6565V38.6007H6.45838L2.63998 42.418C2.38615 42.6719 2.02429 42.7853 1.66999 42.714C1.31786 42.6459 1.02189 42.4061 0.88255 42.0745C-0.669652 38.4063 0.144795 34.2206 2.95647 31.4089C4.78952 29.5748 7.22854 28.5649 9.82311 28.5649C10.8892 28.5649 11.9316 28.7344 12.9297 29.0715L28.7034 13.2978C27.5238 9.80557 28.4031 5.96017 31.0398 3.32347C32.8739 1.49043 35.3129 0.480469 37.9075 0.480469C39.2221 0.480469 40.4999 0.738629 41.7064 1.24955C42.0381 1.38997 42.2768 1.68486 42.3459 2.03699C42.415 2.38913 42.3038 2.75314 42.0499 3.00698L38.2315 6.82646V9.88226H41.2873L45.1047 6.06386C45.3585 5.81002 45.7182 5.6966 46.0746 5.76789C46.4268 5.83595 46.7228 6.07574 46.8621 6.40735C48.4143 10.0756 47.5998 14.2613 44.7882 17.0729C42.9551 18.906 40.5161 19.9159 37.9215 19.9159C36.8554 19.9159 35.813 19.7464 34.815 19.4093L19.0413 35.1831C20.2208 38.6752 19.3405 42.5206 16.7038 45.1573C14.8707 46.9904 12.4317 48.0003 9.83715 48.0003ZM8.50098 45.7233C8.93845 45.8011 9.38456 45.84 9.83715 45.84C11.8549 45.84 13.7506 45.0547 15.1764 43.63C17.3638 41.4437 17.9967 38.1859 16.7891 35.3332C16.6174 34.9281 16.7092 34.4593 17.0203 34.1483L33.7802 17.3883C34.0923 17.0773 34.5622 16.9844 34.9651 17.1572C35.9038 17.5536 36.8986 17.7556 37.9215 17.7556C39.9393 17.7556 41.835 16.9703 43.2608 15.5445C45.042 13.7633 45.7927 11.2714 45.3563 8.86582L42.4971 11.725C42.2941 11.9281 42.0197 12.0415 41.7335 12.0415H37.1514C36.5551 12.0415 36.0712 11.5587 36.0712 10.9613V6.37927C36.0712 6.09195 36.1846 5.81758 36.3877 5.61559L39.2458 2.75854C38.8073 2.68077 38.3612 2.64189 37.9086 2.64189C35.8908 2.64189 33.994 3.42717 32.5682 4.85191C30.382 7.03925 29.749 10.296 30.9566 13.1487C31.1284 13.5538 31.0365 14.0225 30.7255 14.3336L13.9645 31.0935C13.6534 31.4046 13.1835 31.4964 12.7795 31.3247C11.8409 30.9283 10.846 30.7263 9.82311 30.7263C7.80535 30.7263 5.90858 31.5116 4.48383 32.9374C2.70263 34.7186 1.95192 37.2105 2.38831 39.6161L5.24751 36.7569C5.45058 36.5538 5.72495 36.4404 6.01119 36.4404H10.5943C11.1906 36.4404 11.6745 36.9232 11.6745 37.5205V42.1037C11.6745 42.391 11.5611 42.6654 11.358 42.8674L8.50098 45.7233Z" fill="#1B1B1B"/>
<path fill-rule="evenodd" clip-rule="evenodd" d="M43.3191 48.0004C42.1655 48.0004 41.0799 47.551 40.2633 46.7344L30.3344 36.8044C29.9121 36.3821 29.9121 35.6994 30.3344 35.2771L34.9165 30.695C35.3389 30.2726 36.0215 30.2726 36.4439 30.695L46.3739 40.625C47.1905 41.4405 47.6398 42.5261 47.6398 43.6797C47.6398 44.8344 47.1894 45.92 46.3739 46.7355C45.5583 47.551 44.4738 48.0004 43.3191 48.0004ZM32.6265 36.0407L41.7918 45.2071C42.6073 46.0226 44.0299 46.0237 44.8465 45.2071C45.2548 44.7988 45.4795 44.2565 45.4795 43.6797C45.4795 43.1029 45.2548 42.5596 44.8476 42.1523L35.6813 32.986L32.6265 36.0407Z" fill="#1B1B1B"/>
<path fill-rule="evenodd" clip-rule="evenodd" d="M9.59435 8.4267L21.9196 20.7519L20.392 22.2795L8.06677 9.95427L9.59435 8.4267Z" fill="#1B1B1B"/>
<path fill-rule="evenodd" clip-rule="evenodd" d="M28.806 39.413C28.5295 39.413 28.2529 39.3071 28.0423 39.0965C27.62 38.6742 27.62 37.9915 28.0423 37.5691L37.2075 28.4039C37.6299 27.9816 38.3126 27.9816 38.7349 28.4039C39.1573 28.8263 39.1573 29.5089 38.7349 29.9313L29.5697 39.0965C29.359 39.3071 29.0825 39.413 28.806 39.413Z" fill="#1B1B1B"/>
<path fill-rule="evenodd" clip-rule="evenodd" d="M7.30307 11.7985C7.02655 11.7985 6.75003 11.6926 6.53939 11.482L0.428878 5.37149C0.225806 5.1695 0.112389 4.89514 0.112389 4.60781C0.112389 4.32049 0.225806 4.04612 0.428878 3.84413L3.4836 0.789416C3.90594 0.36707 4.58861 0.36707 5.01095 0.789416L11.1215 6.89993C11.3245 7.103 11.438 7.37629 11.438 7.66361C11.438 7.95093 11.3245 8.2253 11.1215 8.42729L8.06675 11.482C7.85612 11.6937 7.5796 11.7985 7.30307 11.7985ZM2.71992 4.60781L7.30307 9.19097L8.83043 7.66361L4.24727 3.08045L2.71992 4.60781Z" fill="#1B1B1B"/>
<path fill-rule="evenodd" clip-rule="evenodd" d="M26.5039 25.3346L34.4328 33.2635L32.9052 34.791L24.9763 26.8622L26.5039 25.3346Z" fill="#1B1B1B"/>
</svg>
