<svg width="25" height="25" viewBox="0 0 25 25" fill="none" xmlns="http://www.w3.org/2000/svg">
<g clip-path="url(#clip0_0_60)">
<path d="M6.32482 18.5915H0.640625V24.2757H6.32482V18.5915Z" fill="black"/>
<path d="M6.32482 9.65988H0.640625V15.3441H6.32482V9.65988Z" fill="black"/>
<path d="M6.32482 0.726471H0.640625V6.41067H6.32482V0.726471Z" fill="black"/>
<path d="M15.2582 18.5915H9.57404V24.2757H15.2582V18.5915Z" fill="black"/>
<path d="M15.2582 9.65988H9.57404V15.3441H15.2582V9.65988Z" fill="black"/>
<path d="M15.2582 0.726471H9.57404V6.41067H15.2582V0.726471Z" fill="black"/>
<path d="M24.1899 18.5915H18.5057V24.2757H24.1899V18.5915Z" fill="black"/>
<path d="M24.1899 9.65988H18.5057V15.3441H24.1899V9.65988Z" fill="black"/>
<path d="M24.1899 0.726471H18.5057V6.41067H24.1899V0.726471Z" fill="black"/>
</g>
<defs>
<clipPath id="clip0_0_60">
<rect width="23.5488" height="23.5488" fill="white" transform="translate(0.640625 0.726471)"/>
</clipPath>
</defs>
</svg>
