<svg width="49" height="40" viewBox="0 0 49 40" fill="none" xmlns="http://www.w3.org/2000/svg">
<path fill-rule="evenodd" clip-rule="evenodd" d="M41.6406 32H7.64062C7.08763 32 6.64062 31.552 6.64062 31V9C6.64062 8.448 7.08763 8 7.64062 8H10.6406V10H8.64062V30H40.6406V26H42.6406V31C42.6406 31.552 42.1936 32 41.6406 32Z" fill="#1B1B1B"/>
<path fill-rule="evenodd" clip-rule="evenodd" d="M47.6406 24H13.6406C13.0876 24 12.6406 23.552 12.6406 23V1C12.6406 0.448 13.0876 0 13.6406 0H47.6406C48.1936 0 48.6406 0.448 48.6406 1V23C48.6406 23.552 48.1936 24 47.6406 24ZM14.6406 22H46.6406V2H14.6406V22Z" fill="#1B1B1B"/>
<path fill-rule="evenodd" clip-rule="evenodd" d="M35.6406 40H1.64062C1.08763 40 0.640625 39.552 0.640625 39V17C0.640625 16.448 1.08763 16 1.64062 16H4.64062V18H2.64062V38H34.6406V34H36.6406V39C36.6406 39.552 36.1936 40 35.6406 40Z" fill="#1B1B1B"/>
</svg>
