<svg width="18" height="14" viewBox="0 0 18 14" fill="none" xmlns="http://www.w3.org/2000/svg">
<path fill-rule="evenodd" clip-rule="evenodd" d="M15.9008 3.48683C15.907 3.63859 15.9105 3.79124 15.9105 3.94478C15.9105 8.61532 12.4027 14 5.98781 14C4.01807 14 2.18488 13.4153 0.640625 12.4128C0.91371 12.4449 1.1912 12.4619 1.47309 12.4619C3.1072 12.4619 4.61093 11.8968 5.80458 10.9488C4.27794 10.9202 2.99004 9.89811 2.54694 8.49391C2.75924 8.53587 2.97771 8.55818 3.20234 8.55818C3.52035 8.55818 3.82868 8.51444 4.12114 8.4341C2.52579 8.10916 1.32422 6.68086 1.32422 4.96869C1.32422 4.95352 1.32422 4.93834 1.32422 4.92406C1.79463 5.18829 2.33199 5.34719 2.90371 5.36594C1.96817 4.73213 1.35241 3.65019 1.35241 2.42454C1.35241 1.77645 1.52419 1.16942 1.82458 0.647198C3.54502 2.78518 6.11466 4.19295 9.01289 4.34024C8.95387 4.08136 8.92304 3.81177 8.92304 3.53415C8.92304 1.58273 10.484 0 12.4106 0C13.414 0 14.3204 0.429382 14.9565 1.11675C15.7511 0.957852 16.4972 0.664159 17.1711 0.258879C16.9112 1.08372 16.358 1.77645 15.6374 2.21386C16.343 2.12906 17.0152 1.93891 17.6406 1.65772C17.1729 2.36651 16.5818 2.98871 15.9008 3.48683" fill="white"/>
</svg>
