<svg width="21" height="14" viewBox="0 0 21 14" fill="none" xmlns="http://www.w3.org/2000/svg">
<path fill-rule="evenodd" clip-rule="evenodd" d="M8.57562 9.58173L8.575 3.98907L13.9787 6.79504L8.57562 9.58173ZM20.4406 3.01995C20.4406 3.01995 20.245 1.64838 19.6456 1.04439C18.885 0.2513 18.0325 0.247567 17.6419 0.201537C14.8431 0 10.645 0 10.645 0H10.6362C10.6362 0 6.43812 0 3.63937 0.201537C3.24813 0.247567 2.39625 0.2513 1.635 1.04439C1.03562 1.64838 0.840625 3.01995 0.840625 3.01995C0.840625 3.01995 0.640625 4.631 0.640625 6.24144V7.75172C0.640625 9.36278 0.840625 10.9732 0.840625 10.9732C0.840625 10.9732 1.03562 12.3448 1.635 12.9488C2.39625 13.7419 3.39563 13.717 3.84063 13.7997C5.44063 13.9527 10.6406 14 10.6406 14C10.6406 14 14.8431 13.9938 17.6419 13.7922C18.0325 13.7456 18.885 13.7419 19.6456 12.9488C20.245 12.3448 20.4406 10.9732 20.4406 10.9732C20.4406 10.9732 20.6406 9.36278 20.6406 7.75172V6.24144C20.6406 4.631 20.4406 3.01995 20.4406 3.01995Z" fill="white"/>
</svg>
